<svg xmlns="http://www.w3.org/2000/svg" viewBox="0 0 100 100" role="img" aria-label="ManttеX favicon">
  <defs>
    <linearGradient id="redOrange" x1="0" y1="0" x2="1" y2="1">
      <stop offset="0" stop-color="#f20b27"/>
      <stop offset="1" stop-color="#ff8d00"/>
    </linearGradient>
    <linearGradient id="greenBlue" x1="0" y1="0" x2="1" y2="1">
      <stop offset="0" stop-color="#72d313"/>
      <stop offset="1" stop-color="#007b54"/>
    </linearGradient>
    <linearGradient id="bluePurple" x1="0" y1="0" x2="1" y2="1">
      <stop offset="0" stop-color="#087ff2"/>
      <stop offset="1" stop-color="#a414e8"/>
    </linearGradient>
  </defs>
  <g transform="translate(9 9) scale(.82)">
    <path d="M8 16h25l17 20L68 16h25L61 52l27 38H62L50 72 37 90H11l27-38Z" fill="url(#redOrange)"/>
    <path d="M50 16h25L50 53 30 90H11l30-43Z" fill="#fff000"/>
    <path d="M68 16h25L59 53 38 90H20l30-43Z" fill="url(#greenBlue)" opacity=".96"/>
    <path d="M61 52l27 38H62L49 72 39 90H26l25-38Z" fill="url(#bluePurple)"/>
    <path d="M17 30h14l19 27 19-27h14L60 62 50 76 40 62Z" fill="#0c0c0d"/>
  </g>
</svg>
